<?xml version="1.0" encoding="utf-8"?>
<!-- Generator: Adobe Illustrator 19.1.0, SVG Export Plug-In . SVG Version: 6.00 Build 0)  -->
<svg version="1.1" id="Layer_1" xmlns="http://www.w3.org/2000/svg" xmlns:xlink="http://www.w3.org/1999/xlink" x="0px" y="0px"
	 viewBox="0 0 26 26" style="enable-background:new 0 0 26 26;" xml:space="preserve">
<style type="text/css">
	.st0{fill:#FF008C;}
</style>
<g>
	<path class="st0" d="M18.1,24.6L18.1,24.6L18.1,24.6c-0.3,0.1-0.5,0.2-0.8,0.3l0,0l0,0c-0.1,0-0.2,0-0.2,0.1l0,0l0,0
		c0,0-0.1,0-0.1,0c0,0-0.1,0-0.1,0c0,0,0,0-0.1,0l0,0l0,0c-0.1,0-0.1,0-0.2,0c-0.1,0-0.1,0-0.2,0c-0.1,0-0.1,0-0.2,0
		c0,0-0.1,0-0.1,0c0,0-0.1,0-0.1,0l0,0c-0.1,0-0.1,0-0.2,0.1c0,0-0.1,0-0.1,0c-0.1,0-0.2,0-0.4,0.1c0,0-0.1,0-0.1,0c0,0-0.1,0-0.1,0
		c0,0-0.1,0-0.1,0c-0.1,0-0.3,0-0.4,0.1c0,0,0,0-0.1,0c0-2.8,0-5.5,0.1-8.3c0-0.2,0.1-0.3,0.3-0.3c0.7,0,1.5,0,2.2,0
		c0.1,0,0.2,0,0.2-0.2c0.2-1.1,0.3-2.1,0.5-3.2c0-0.2,0-0.3-0.2-0.3c-0.9,0-1.8,0-2.7,0c-0.2,0-0.2,0-0.2-0.2c0-0.8,0-1.6,0-2.3
		c0-0.8,0.5-1.2,1.3-1.2c0.6,0,1.1,0,1.7,0c0.2,0,0.3,0,0.3-0.2c0-0.9,0-1.8,0-2.6c0-0.2-0.1-0.2-0.2-0.2c-1,0-2,0-3.1,0
		c-0.3,0-0.7,0-1,0.1c-1.5,0.5-2.5,1.9-2.5,3.5c0,1,0,2,0,3c0,0.2-0.1,0.2-0.2,0.2c-0.8,0-1.7,0-2.5,0c-0.2,0-0.2,0.1-0.2,0.2
		c0,1.1,0,2.1,0,3.2c0,0.2,0.1,0.2,0.2,0.2c0.8,0,1.7,0,2.5,0c0.2,0,0.3,0.1,0.3,0.3c0,2.6-0.1,5.3-0.1,7.9c0,0.1,0,0.1,0,0.2
		c0,0.1-0.1,0.2-0.2,0.1c-0.5-0.1-0.9-0.2-1.4-0.4c-1-0.4-2.1-0.8-3-1.4c-4-2.6-6.1-6.4-5.8-11.2C0.7,7.4,3.3,3.8,7.9,1.6
		C11.6,0,15.3,0.1,18.9,2c3.5,1.9,5.7,4.8,6.4,8.7c0.8,4.3-0.4,8.1-3.5,11.3c-0.6,0.6-1.3,1.2-2.1,1.7c0,0,0,0,0,0l0,0
		c-0.1,0-0.2,0.1-0.2,0.2l0,0c0,0,0,0-0.1,0c0,0,0,0,0,0c0,0,0,0-0.1,0l0,0c-0.1,0-0.2,0.1-0.3,0.2l0,0c-0.1,0-0.2,0.1-0.2,0.1l0,0
		c-0.1,0-0.1,0-0.2,0.1l0,0l0,0c-0.1,0-0.1,0-0.2,0.1l0,0l0,0C18.2,24.5,18.1,24.5,18.1,24.6z"/>
</g>
</svg>
