<?xml version="1.0" encoding="utf-8"?>
<!-- Generator: Adobe Illustrator 19.1.0, SVG Export Plug-In . SVG Version: 6.00 Build 0)  -->
<svg version="1.1" id="Layer_1" xmlns="http://www.w3.org/2000/svg" xmlns:xlink="http://www.w3.org/1999/xlink" x="0px" y="0px"
	 viewBox="0 0 26 26" style="enable-background:new 0 0 26 26;" xml:space="preserve">
<style type="text/css">
	.st0{fill:#FF008C;}
</style>
<g>
	<path class="st0" d="M13.1,0.6c1.9,0,3.7,0,5.6,0.1c3.8,0.2,6.7,3.3,6.7,7.1c0,3.5,0,7.1-0.1,10.6c-0.1,3.8-3.2,7-7.1,7
		c-3.6,0-7.2,0-10.8-0.1c-3.9-0.1-7-3.3-6.9-7.2c0-3.5,0.1-7,0.1-10.5c0.1-4,3.3-7.1,7.2-7.1C9.6,0.6,11.4,0.6,13.1,0.6
		C13.1,0.6,13.1,0.6,13.1,0.6z M13.1,3c-1.8,0-3.5,0-5.3-0.1C5.1,2.9,3,4.9,3,7.7c0,3.5-0.1,7-0.1,10.5c0,0.3,0,0.6,0.1,0.9
		c0.4,2.3,2.3,4,4.8,4c1.7,0,3.4,0,5.2,0.1c1.8,0,3.7,0.1,5.5,0c2.6,0,4.7-2.1,4.7-4.7c0-3.5,0.1-7,0.1-10.5c0-2.8-2-4.9-4.8-4.9
		C16.6,3,14.9,3,13.1,3z"/>
	<path class="st0" d="M12.9,19.5c-3.6,0-6.4-2.9-6.4-6.5c0-3.5,3-6.4,6.5-6.3c3.5,0,6.4,2.9,6.4,6.5C19.4,16.7,16.5,19.5,12.9,19.5z
		 M12.9,17.2c2.3,0,4.2-1.8,4.2-4.1c0-2.3-1.8-4.2-4.1-4.2c-2.3,0-4.2,1.8-4.2,4.1C8.8,15.3,10.6,17.2,12.9,17.2z"/>
	<path class="st0" d="M21.2,6.5c0,0.8-0.7,1.5-1.5,1.5c-0.8,0-1.5-0.7-1.5-1.5c0-0.8,0.7-1.5,1.5-1.5C20.5,4.9,21.2,5.6,21.2,6.5z"
		/>
</g>
</svg>
