<?xml version="1.0" encoding="utf-8"?>
<!-- Generator: Adobe Illustrator 19.1.0, SVG Export Plug-In . SVG Version: 6.00 Build 0)  -->
<svg version="1.1" id="Layer_1" xmlns="http://www.w3.org/2000/svg" xmlns:xlink="http://www.w3.org/1999/xlink" x="0px" y="0px"
	 viewBox="0 0 26 26" style="enable-background:new 0 0 26 26;" xml:space="preserve">
<style type="text/css">
	.st0{fill:#FF008C;}
</style>
<g>
	<path class="st0" d="M2,1.3c0.1,0,0.2,0,0.3,0c2,0,4.1,0,6.1,0.1c0.2,0,0.3,0.1,0.4,0.2c1.8,2.7,3.7,5.4,5.5,8.2
		c0.1,0.2,0.2,0.2,0.3,0c2.4-2.7,4.7-5.4,7.1-8.1c0.1-0.1,0.1-0.1,0.2-0.1c0.6,0,1.2,0,1.9,0C23.3,2,23,2.4,22.6,2.8
		c-2.4,2.7-4.8,5.5-7.2,8.2c-0.1,0.1-0.1,0.2,0,0.3c2.6,3.9,5.3,7.8,7.9,11.7c0.3,0.5,0.7,1,1,1.6c-0.1,0-0.2,0-0.2,0
		c-2.1,0-4.1,0-6.2-0.1c-0.2,0-0.3-0.1-0.4-0.2c-1.9-2.9-3.9-5.8-5.8-8.7c-0.2-0.3-0.2-0.3-0.4,0c-2.5,2.9-5,5.7-7.5,8.6
		c-0.1,0.1-0.1,0.1-0.2,0.1c-0.6,0-1.2,0-1.8,0c0.6-0.6,1.1-1.2,1.6-1.8c1.8-2.1,3.7-4.2,5.5-6.3c0.5-0.6,1.1-1.2,1.6-1.8
		c0.2-0.2,0.2-0.3,0.1-0.5C7.7,9.8,4.9,5.7,2.1,1.6C2.1,1.5,2,1.4,2,1.3z M21.3,23c0,0,0-0.1-0.1-0.1c-1.4-2-2.7-4-4.1-6.1
		C14.1,12.2,11,7.6,7.9,3.1C7.8,3,7.8,2.9,7.6,2.9c-0.9,0-1.7,0-2.6,0c-0.1,0-0.1,0-0.2,0c0,0,0,0.1,0.1,0.1
		c0.9,1.4,1.8,2.7,2.7,4.1c3.2,4.7,6.3,9.4,9.5,14.1c0.4,0.6,0.8,1.3,1.3,1.8c0,0,0.1,0,0.1,0c0.9,0,1.8,0,2.7,0c0,0,0.1,0,0.1,0
		C21.4,23.1,21.3,23,21.3,23z"/>
	<path class="st0" d="M21.3,23.1c0,0,0-0.1,0-0.1c0,0,0.1,0.1,0.1,0.1C21.4,23.1,21.3,23.1,21.3,23.1z"/>
	<path class="st0" d="M18.5,23.1c0,0,0.1,0,0.1,0C18.5,23.1,18.5,23.1,18.5,23.1z"/>
</g>
</svg>
